<?xml version="1.0" encoding="utf-8"?>
<!-- Generator: Adobe Illustrator 20.0.0, SVG Export Plug-In . SVG Version: 6.00 Build 0)  -->
<svg version="1.1" id="レイヤー_1" xmlns="http://www.w3.org/2000/svg" xmlns:xlink="http://www.w3.org/1999/xlink" x="0px"
	 y="0px" viewBox="0 0 841.9 595.3" style="enable-background:new 0 0 841.9 595.3;" xml:space="preserve">
<style type="text/css">
	.st0{fill:none;stroke:#DCDDDD;stroke-width:25;stroke-miterlimit:10;}
	.st1{fill:#9FA0A0;}
</style>
<g>
	<line class="st0" x1="370.6" y1="226.4" x2="498.6" y2="354.4"/>
	<circle class="st0" cx="435" cy="290" r="90"/>
</g>
<g>
	<path class="st1" d="M323.4,310.3l-15.8-24.5v24.5h-7.8v-39.9h6.9l15.8,24.4v-24.4h7.8v39.9H323.4z"/>
	<path class="st1" d="M366.6,306.3c-2.8,2.8-6.2,4.4-10.7,4.4c-4.5,0-8-1.6-10.8-4.4c-4-4-3.9-9-3.9-15.9s-0.1-11.9,3.9-15.9
		c2.8-2.8,6.3-4.4,10.8-4.4c4.5,0,7.9,1.6,10.7,4.4c4,4,4,9,4,15.9S370.6,302.3,366.6,306.3z M360.8,279.2c-1.1-1.3-2.9-2.1-5-2.1
		c-2.1,0-3.9,0.8-5,2.1c-1.5,1.7-1.9,3.5-1.9,11.2s0.4,9.5,1.9,11.2c1.1,1.3,2.9,2.1,5,2.1c2.1,0,3.9-0.8,5-2.1
		c1.5-1.7,2-3.5,2-11.2S362.3,280.9,360.8,279.2z"/>
	<path class="st1" d="M397.1,310.3v-39.9h7.8v39.9H397.1z"/>
	<path class="st1" d="M445.3,310.3v-23.2l-7.6,15.1h-5.3l-7.7-15.1v23.2H417v-39.9h7.7L435,292l10.4-21.6h7.7v39.9H445.3z"/>
	<path class="st1" d="M487.8,310.3l-2.4-7.1h-14.2l-2.4,7.1h-8.1l14.5-39.9h6.1l14.6,39.9H487.8z M478.5,282.2l-5,14.5h9.9
		L478.5,282.2z"/>
	<path class="st1" d="M528.2,306.1c-3.2,3.3-7,4.5-11.2,4.5c-4.4,0-7.9-1.6-10.7-4.4c-4-4-3.9-9-3.9-15.9s-0.1-11.9,3.9-15.9
		c2.8-2.8,6.3-4.4,10.7-4.4c9.2,0,13.9,6,15,12.8h-7.8c-0.9-3.8-3.2-5.8-7.2-5.8c-2.1,0-3.9,0.8-5,2.1c-1.5,1.7-1.9,3.5-1.9,11.2
		s0.4,9.6,1.9,11.3c1.1,1.3,2.9,2.1,5,2.1c2.3,0,4.3-0.8,5.5-2.2c1.3-1.5,1.8-3.2,1.8-5.3v-1.5H517v-6.5H532v5.8
		C532,299.8,531,303.2,528.2,306.1z"/>
	<path class="st1" d="M542.7,310.3v-39.9H569v6.9h-18.5v9.3h15.7v6.9h-15.7v9.7H569v6.9H542.7z"/>
</g>
</svg>
